<svg xmlns="http://www.w3.org/2000/svg" width="360" height="360" viewBox="0 0 360 360" role="img" aria-label="">
  <rect width="360" height="360" fill="#ffffff"/>
  <g fill="none" stroke-linecap="round" stroke-linejoin="round">
    <path d="M37 42c22 16 42 16 62 0" stroke="#5f0c66" stroke-width="8"/>
    <path d="M251 42c22 16 42 16 62 0" stroke="#e39b4d" stroke-width="8"/>
    <path d="M82 124l28 28m0-28-28 28" stroke="#5f0c66" stroke-width="7"/>
    <path d="M244 125l30 30m0-30-30 30" stroke="#e39b4d" stroke-width="7"/>
    <circle cx="174" cy="78" r="23" stroke="#5f0c66" stroke-width="8"/>
    <circle cx="178" cy="244" r="25" stroke="#e39b4d" stroke-width="8"/>
    <path d="M31 238c23-17 46-17 69 0s46 17 69 0" stroke="#e39b4d" stroke-width="8"/>
    <path d="M209 238c23-17 46-17 69 0s46 17 69 0" stroke="#5f0c66" stroke-width="8"/>
    <path d="M44 306h58m-29-29v58" stroke="#5f0c66" stroke-width="7"/>
    <path d="M258 306h58m-29-29v58" stroke="#e39b4d" stroke-width="7"/>
  </g>
</svg>
